0
SECTION
2
HEADER
9
$INSUNITS
70
4
9
$ACADVER
1
AC1014
9
$HANDSEED
5
FFFF
0
ENDSEC
0
SECTION
2
TABLES
0
TABLE
2
VPORT
5
8
100
AcDbSymbolTable
0
ENDTAB
0
TABLE
2
LTYPE
5
5
100
AcDbSymbolTable
0
LTYPE
5
14
100
AcDbSymbolTableRecord
100
AcDbLinetypeTableRecord
2
BYBLOCK
70
0
0
LTYPE
5
15
100
AcDbSymbolTableRecord
100
AcDbLinetypeTableRecord
2
BYLAYER
70
0
0
ENDTAB
0
TABLE
2
LAYER
5
2
100
AcDbSymbolTable
70
2
0
LAYER
5
50
100
AcDbSymbolTableRecord
100
AcDbLayerTableRecord
2
0
70
0
6
CONTINUOUS
0
ENDTAB
0
TABLE
2
STYLE
5
3
100
AcDbSymbolTable
70
1
0
STYLE
5
11
100
AcDbSymbolTableRecord
100
AcDbTextStyleTableRecord
2
STANDARD
70
0
0
ENDTAB
0
TABLE
2
VIEW
5
6
100
AcDbSymbolTable
70
0
0
ENDTAB
0
TABLE
2
UCS
5
7
100
AcDbSymbolTable
70
0
0
ENDTAB
0
TABLE
2
APPID
5
9
100
AcDbSymbolTable
70
2
0
APPID
5
12
100
AcDbSymbolTableRecord
100
AcDbRegAppTableRecord
2
ACAD
70
0
0
ENDTAB
0
TABLE
2
DIMSTYLE
5
A
100
AcDbSymbolTable
70
1
0
ENDTAB
0
TABLE
2
BLOCK_RECORD
5
1
100
AcDbSymbolTable
70
1
0
BLOCK_RECORD
5
1F
100
AcDbSymbolTableRecord
100
AcDbBlockTableRecord
2
*MODEL_SPACE
0
BLOCK_RECORD
5
1B
100
AcDbSymbolTableRecord
100
AcDbBlockTableRecord
2
*PAPER_SPACE
0
ENDTAB
0
ENDSEC
0
SECTION
2
BLOCKS
0
BLOCK
5
20
100
AcDbEntity
100
AcDbBlockBegin
2
*MODEL_SPACE
0
ENDBLK
5
21
100
AcDbEntity
100
AcDbBlockEnd
0
BLOCK
5
1C
100
AcDbEntity
100
AcDbBlockBegin
2
*PAPER_SPACE
0
ENDBLK
5
1D
100
AcDbEntity
100
AcDbBlockEnd
0
ENDSEC
0
SECTION
2
ENTITIES
0
LWPOLYLINE
5
100
100
AcDbEntity
8
0
100
AcDbPolyline
90
62
70
1
43
0.0
10
134.32500000000002
20
-124.10000000000002
42
0.4142135623730876
10
133.625
20
-124.80000000000004
10
133.625
20
-128.30000000000004
42
-0.41421356237309503
10
131.82500000000002
20
-130.10000000000002
10
77.724999999999994
20
-130.10000000000002
42
-0.41421356237309359
10
75.924999999999997
20
-128.30000000000007
10
75.924999999999997
20
-107.25000000000001
42
0.41421356237309975
10
73.724999999999994
20
-105.05000000000001
10
73.162499999999369
20
-105.05000000000001
42
-0.41421356237308854
10
71.162499999999355
20
-103.05
10
71.162500000000009
20
-21.337500000000013
10
71.162500000000023
20
-6.2875000000000014
42
-0.41421356237308693
10
72.96250000000002
20
-4.4874999999999998
10
132.82500000000002
20
-4.4875000000000043
42
0.41421356237309687
10
135.02500000000001
20
-2.2874999999999983
10
135.02500000000001
20
-0.28749999999999903
42
-0.41421356237309698
10
136.82500000000002
20
1.5125000000000013
10
162.82500000000002
20
1.5125000000000015
42
-0.41421356237309548
10
164.62500000000003
20
-0.28749999999999803
10
164.62500000000003
20
-2.2874999999999996
42
0.41421356237309548
10
166.82500000000002
20
-4.4874999999999963
10
290.37499999999972
20
-4.487500000000022
42
0.41421356237308476
10
292.5749999999997
20
-2.2875000000000001
10
292.5749999999997
20
-0.28750000000000009
42
-0.41421356237309553
10
294.37499999999966
20
1.5125
10
320.37499999999966
20
1.5124999999999631
42
-0.41421356237308998
10
322.17499999999967
20
-0.28750000000000303
10
322.17499999999967
20
-2.287499999999993
42
0.41421356237309925
10
324.37499999999966
20
-4.4874999999999829
10
384.23749999999973
20
-4.4875000000000362
42
-0.41421356237308998
10
386.03749999999968
20
-6.2875000000000023
10
386.03749999999968
20
-21.337499999999991
10
386.03749999999968
20
-107.25000000000001
10
386.0374999999998
20
-122.30000000000001
42
-0.41421356237308926
10
384.23749999999973
20
-124.09999999999999
10
324.37499999999972
20
-124.10000000000004
42
0.41421356237309037
10
322.17499999999967
20
-126.30000000000003
10
322.17499999999973
20
-128.30000000000001
42
-0.41421356237308926
10
320.37499999999966
20
-130.10000000000002
10
294.37499999999966
20
-130.10000000000002
42
-0.41421356237309503
10
292.5749999999997
20
-128.30000000000001
10
292.5749999999997
20
-126.30000000000003
42
0.41421356237309503
10
290.37499999999972
20
-124.10000000000004
10
249.54375000000002
20
-124.10000000000004
42
-0.41421356237309503
10
247.54375000000005
20
-122.10000000000005
10
247.54375000000005
20
-107.30000000000003
42
0.99999999999999989
10
245.54375000000007
20
-107.29999999999998
10
245.54375000000005
20
-122.10000000000005
42
-0.41421356237309764
10
243.54375000000005
20
-124.10000000000005
10
227.94374999999999
20
-124.10000000000004
42
-0.41421356237309503
10
225.94374999999999
20
-122.10000000000005
10
225.94374999999999
20
-107.30000000000003
42
0.99999999999999989
10
223.94375000000002
20
-107.29999999999998
10
223.94374999999999
20
-122.10000000000005
42
-0.41421356237309764
10
221.94375000000002
20
-124.10000000000005
10
166.82500000000002
20
-124.10000000000004
42
0.41421356237309503
10
164.62500000000003
20
-126.30000000000003
10
164.62500000000003
20
-128.30000000000004
42
-0.41421356237309503
10
162.82500000000002
20
-130.10000000000002
10
136.82499999999999
20
-130.10000000000002
42
-0.41421356237309503
10
135.02500000000001
20
-128.30000000000004
10
135.02500000000001
20
-124.80000000000004
42
0.41421356237307272
0
LINE
5
101
100
AcDbEntity
8
0
100
AcDbLine
10
71.162500000000009
20
-45.337500000000006
30
0
11
71.162500000000009
21
-83.250000000000028
31
0
0
LINE
5
102
100
AcDbEntity
8
0
100
AcDbLine
10
386.0374999999998
20
-45.337499999999991
30
0
11
386.03749999999968
21
-83.250000000000028
31
0
0
LWPOLYLINE
5
103
100
AcDbEntity
8
0
100
AcDbPolyline
90
4
70
1
43
0.0
10
137.32500000000002
20
-5.4874999999999998
10
162.32500000000002
20
-5.4874999999999998
42
0.99999999999999989
10
162.32500000000002
20
-4.4874999999999998
10
137.32500000000002
20
-4.4874999999999998
42
0.99999999999999989
0
LINE
5
104
100
AcDbEntity
8
0
100
AcDbLine
10
71.162500000000023
20
-87.750000000000028
30
0
11
71.162500000000023
21
-102.75000000000003
31
0
0
LWPOLYLINE
5
105
100
AcDbEntity
8
0
100
AcDbPolyline
90
4
70
1
43
0.0
10
294.87499999999966
20
-5.4875000000000025
10
319.87499999999966
20
-5.4875000000000025
42
0.99999999999999989
10
319.87499999999966
20
-4.4875000000000034
10
294.87499999999966
20
-4.4875000000000034
42
0.99999999999999989
0
LINE
5
106
100
AcDbEntity
8
0
100
AcDbLine
10
386.03749999999968
20
-40.837500000000006
30
0
11
386.03749999999968
21
-25.837500000000006
31
0
0
LWPOLYLINE
5
107
100
AcDbEntity
8
0
100
AcDbPolyline
90
4
70
1
43
0.0
10
137.32500000000002
20
-124.10000000000004
10
162.32500000000002
20
-124.10000000000004
42
0.99999999999999989
10
162.32500000000002
20
-123.10000000000002
10
137.32500000000002
20
-123.10000000000002
42
0.99999999999999989
0
LWPOLYLINE
5
108
100
AcDbEntity
8
0
100
AcDbPolyline
90
4
70
1
43
0.0
10
294.87499999999966
20
-124.10000000000002
10
319.87499999999966
20
-124.10000000000002
42
0.99999999999999989
10
319.87499999999966
20
-123.10000000000001
10
294.87499999999966
20
-123.10000000000001
42
0.99999999999999989
0
LINE
5
109
100
AcDbEntity
8
0
100
AcDbLine
10
386.03749999999968
20
-102.75000000000003
30
0
11
386.03749999999968
21
-87.750000000000028
31
0
0
LINE
5
110
100
AcDbEntity
8
0
100
AcDbLine
10
224.94374999999997
20
-107.30000000000004
30
0
11
224.94375000000002
21
-107.30000000000004
31
0
0
LINE
5
111
100
AcDbEntity
8
0
100
AcDbLine
10
228.74375000000001
20
-107.80000000000001
30
0
11
228.74375000000001
21
-120.8
31
0
0
LINE
5
112
100
AcDbEntity
8
0
100
AcDbLine
10
246.54375000000002
20
-107.30000000000004
30
0
11
246.5437500000001
21
-107.30000000000004
31
0
0
LINE
5
113
100
AcDbEntity
8
0
100
AcDbLine
10
242.74375000000003
20
-107.80000000000001
30
0
11
242.74375000000003
21
-120.8
31
0
0
LINE
5
114
100
AcDbEntity
8
0
100
AcDbLine
10
282.24374999999998
20
-108.80000000000001
30
0
11
282.24374999999998
21
-122.80000000000001
31
0
0
LINE
5
115
100
AcDbEntity
8
0
100
AcDbLine
10
289.24374999999998
20
-108.80000000000001
30
0
11
289.24374999999998
21
-122.80000000000001
31
0
0
LWPOLYLINE
5
116
100
AcDbEntity
8
0
100
AcDbPolyline
90
8
70
1
43
0.0
10
292.75
20
-88.75
10
292.75
20
-101.75
42
-0.41421356237309503
10
292.25
20
-102.25000000000001
10
279.25
20
-102.25000000000001
42
-0.41421356237309503
10
278.75
20
-101.75
10
278.75
20
-88.75
42
-0.41421356237309503
10
279.25
20
-88.250000000000014
10
292.25
20
-88.25
42
-0.41421356237309503
0
LWPOLYLINE
5
117
100
AcDbEntity
8
0
100
AcDbPolyline
90
8
70
1
43
0.0
10
273.69999999999999
20
-88.75
10
273.69999999999999
20
-101.75
42
-0.41421356237309503
10
273.19999999999999
20
-102.25000000000001
10
260.19999999999999
20
-102.25000000000001
42
-0.41421356237309503
10
259.69999999999999
20
-101.75
10
259.69999999999999
20
-88.75
42
-0.41421356237309503
10
260.19999999999999
20
-88.25
10
273.19999999999999
20
-88.25
42
-0.41421356237309503
0
LWPOLYLINE
5
118
100
AcDbEntity
8
0
100
AcDbPolyline
90
8
70
1
43
0.0
10
297.80000000000001
20
-88.75
10
297.80000000000001
20
-101.75
42
0.41421356237309503
10
298.30000000000001
20
-102.25000000000001
10
311.30000000000001
20
-102.25000000000001
42
0.41421356237309503
10
311.80000000000001
20
-101.75
10
311.80000000000001
20
-88.75
42
0.41421356237309503
10
311.30000000000001
20
-88.25
10
298.30000000000001
20
-88.25
42
0.41421356237309503
0
LINE
5
119
100
AcDbEntity
8
0
100
AcDbLine
10
289.24374999999998
20
-103.80000000000001
30
0
11
289.24374999999998
21
-108.80000000000001
31
0
0
LWPOLYLINE
5
120
100
AcDbEntity
8
0
100
AcDbPolyline
90
8
70
1
43
0.0
10
269.22500000000002
20
-82.700000000000017
42
0.41421356237309503
10
269.72500000000002
20
-83.200000000000017
10
282.72500000000002
20
-83.200000000000017
42
0.41421356237309503
10
283.22500000000002
20
-82.700000000000017
10
283.22500000000002
20
-69.700000000000003
42
0.41421356237309503
10
282.72500000000002
20
-69.200000000000003
10
269.72500000000002
20
-69.200000000000003
42
0.41421356237309503
10
269.22500000000002
20
-69.700000000000003
0
ARC
5
121
100
AcDbEntity
8
0
100
AcDbCircle
10
282.74374999999998
20
-103.80000000000003
30
0
40
0.50000000000000711
210
0
220
-0
230
1
100
AcDbArc
50
90
51
180
0
LWPOLYLINE
5
122
100
AcDbEntity
8
0
100
AcDbPolyline
90
8
70
1
43
0.0
10
284.01249999999999
20
-64.150000000000006
10
297.01250000000005
20
-64.150000000000006
42
0.41421356237309503
10
297.51250000000005
20
-63.650000000000006
10
297.51249999999999
20
-50.650000000000006
42
0.41421356237309503
10
297.01250000000005
20
-50.150000000000006
10
284.01249999999999
20
-50.150000000000006
42
0.41421356237309503
10
283.51249999999999
20
-50.650000000000006
10
283.51249999999999
20
-63.650000000000006
42
0.41421356237309503
0
LINE
5
123
100
AcDbEntity
8
0
100
AcDbLine
10
282.74374999999998
20
-103.30000000000001
30
0
11
288.74374999999998
21
-103.3
31
0
0
ARC
5
124
100
AcDbEntity
8
0
100
AcDbCircle
10
288.74374999999998
20
-103.80000000000001
30
0
40
0.50000000000000711
210
0
220
-0
230
1
100
AcDbArc
50
0
51
90
0
LINE
5
125
100
AcDbEntity
8
0
100
AcDbLine
10
282.24374999999998
20
-108.80000000000001
30
0
11
282.24374999999998
21
-103.80000000000001
31
0
0
ARC
5
126
100
AcDbEntity
8
0
100
AcDbCircle
10
288.74374999999998
20
-122.80000000000001
30
0
40
0.49999999999998934
210
0
220
0
230
1
100
AcDbArc
50
-90
51
0
0
LWPOLYLINE
5
127
100
AcDbEntity
8
0
100
AcDbPolyline
90
8
70
1
43
0.0
10
300.18124999999998
20
-107.80000000000001
10
300.18124999999998
20
-120.8
42
0.41421356237309503
10
300.68124999999998
20
-121.30000000000001
10
313.68124999999998
20
-121.30000000000001
42
0.41421356237309503
10
314.18124999999998
20
-120.8
10
314.18124999999998
20
-107.80000000000001
42
0.41421356237309503
10
313.68124999999998
20
-107.30000000000001
10
300.68124999999998
20
-107.30000000000001
42
0.41421356237309503
0
LINE
5
128
100
AcDbEntity
8
0
100
AcDbLine
10
282.74374999999998
20
-123.30000000000001
30
0
11
288.74374999999998
21
-123.3
31
0
0
ARC
5
129
100
AcDbEntity
8
0
100
AcDbCircle
10
282.74374999999998
20
-122.80000000000001
30
0
40
0.50000000000000711
210
0
220
0
230
1
100
AcDbArc
50
180
51
270
0
LWPOLYLINE
5
130
100
AcDbEntity
8
0
100
AcDbPolyline
90
8
70
1
43
0.0
10
301.77499999999998
20
-83.200000000000017
42
0.41421356237309503
10
302.27499999999998
20
-82.700000000000017
10
302.27499999999998
20
-69.700000000000003
42
0.41421356237309503
10
301.77499999999998
20
-69.200000000000003
10
288.77499999999998
20
-69.200000000000003
42
0.41421356237309503
10
288.27499999999998
20
-69.700000000000003
10
288.27499999999998
20
-82.700000000000017
42
0.41421356237309503
10
288.77499999999998
20
-83.200000000000017
0
LWPOLYLINE
5
131
100
AcDbEntity
8
0
100
AcDbPolyline
90
8
70
1
43
0.0
10
222.10000000000002
20
-102.25000000000001
10
235.10000000000002
20
-102.25000000000001
42
0.41421356237309503
10
235.60000000000002
20
-101.75
10
235.60000000000002
20
-88.75
42
0.41421356237309503
10
235.10000000000002
20
-88.25
10
222.10000000000002
20
-88.25
42
0.41421356237309503
10
221.59999999999999
20
-88.75
10
221.59999999999999
20
-101.75
42
0.41421356237309503
0
LWPOLYLINE
5
132
100
AcDbEntity
8
0
100
AcDbPolyline
90
8
70
1
43
0.0
10
307.32499999999999
20
-69.700000000000003
10
307.32499999999999
20
-82.700000000000017
42
0.41421356237309503
10
307.82499999999999
20
-83.200000000000017
10
320.82500000000005
20
-83.200000000000003
42
0.41421356237309503
10
321.32499999999999
20
-82.700000000000017
10
321.32499999999999
20
-69.700000000000003
42
0.41421356237309503
10
320.82500000000005
20
-69.200000000000003
10
307.82499999999999
20
-69.200000000000003
42
0.41421356237309503
0
LWPOLYLINE
5
133
100
AcDbEntity
8
0
100
AcDbPolyline
90
8
70
1
43
0.0
10
302.5625
20
-63.650000000000006
42
0.41421356237309503
10
303.0625
20
-64.150000000000006
10
316.0625
20
-64.150000000000006
42
0.41421356237309503
10
316.5625
20
-63.650000000000006
10
316.56250000000006
20
-50.650000000000006
42
0.41421356237309503
10
316.0625
20
-50.150000000000006
10
303.0625
20
-50.150000000000006
42
0.41421356237309503
10
302.5625
20
-50.650000000000006
0
LWPOLYLINE
5
134
100
AcDbEntity
8
0
100
AcDbPolyline
90
8
70
1
43
0.0
10
277.96249999999998
20
-64.150000000000006
42
0.41421356237309503
10
278.46249999999998
20
-63.650000000000006
10
278.46249999999998
20
-50.650000000000006
42
0.41421356237309503
10
277.96249999999998
20
-50.150000000000006
10
264.96249999999998
20
-50.150000000000006
42
0.41421356237309503
10
264.46249999999998
20
-50.650000000000006
10
264.46249999999998
20
-63.650000000000006
42
0.41421356237309503
10
264.96249999999998
20
-64.150000000000006
0
LWPOLYLINE
5
135
100
AcDbEntity
8
0
100
AcDbPolyline
90
8
70
1
43
0.0
10
231.625
20
-7.2874999999999996
42
0.41421356237309503
10
231.125
20
-7.7875000000000005
10
231.125
20
-20.787500000000001
42
0.41421356237309503
10
231.625
20
-21.287500000000001
10
244.62500000000003
20
-21.287500000000001
42
0.41421356237309503
10
245.12500000000003
20
-20.787500000000001
10
245.12500000000003
20
-7.7875000000000005
42
0.41421356237309503
10
244.62500000000003
20
-7.2874999999999996
0
LWPOLYLINE
5
136
100
AcDbEntity
8
0
100
AcDbPolyline
90
8
70
1
43
0.0
10
145.90000000000001
20
-102.25000000000001
10
158.90000000000001
20
-102.25000000000001
42
0.41421356237309503
10
159.40000000000001
20
-101.75
10
159.40000000000001
20
-88.75
42
0.41421356237309503
10
158.90000000000001
20
-88.250000000000014
10
145.90000000000001
20
-88.250000000000014
42
0.41421356237309503
10
145.40000000000001
20
-88.75
10
145.40000000000001
20
-101.75
42
0.41421356237309503
0
LWPOLYLINE
5
137
100
AcDbEntity
8
0
100
AcDbPolyline
90
8
70
1
43
0.0
10
136.375
20
-69.200000000000003
10
149.375
20
-69.200000000000003
42
-0.41421356237309503
10
149.875
20
-69.700000000000003
10
149.875
20
-82.700000000000017
42
-0.41421356237309503
10
149.375
20
-83.200000000000017
10
136.375
20
-83.200000000000017
42
-0.41421356237309503
10
135.875
20
-82.700000000000017
10
135.87500000000003
20
-69.700000000000003
42
-0.41421356237309503
0
LWPOLYLINE
5
138
100
AcDbEntity
8
0
100
AcDbPolyline
90
8
70
1
43
0.0
10
141.13749999999999
20
-107.30000000000001
10
154.13749999999999
20
-107.30000000000003
42
-0.41421356237309503
10
154.63749999999999
20
-107.80000000000001
10
154.63750000000002
20
-120.8
42
-0.41421356237309503
10
154.13749999999999
20
-121.30000000000001
10
141.13749999999999
20
-121.30000000000001
42
-0.41421356237309503
10
140.63749999999999
20
-120.8
10
140.63749999999999
20
-107.80000000000001
42
-0.41421356237309503
0
LWPOLYLINE
5
139
100
AcDbEntity
8
0
100
AcDbPolyline
90
8
70
1
43
0.0
10
141.13749999999999
20
-45.100000000000009
10
154.13749999999999
20
-45.100000000000009
42
0.41421356237309503
10
154.63750000000002
20
-44.600000000000001
10
154.63750000000002
20
-31.600000000000001
42
0.41421356237309503
10
154.13749999999999
20
-31.100000000000001
10
141.13749999999999
20
-31.100000000000001
42
0.41421356237309503
10
140.63749999999999
20
-31.600000000000001
10
140.63749999999999
20
-44.600000000000001
42
0.41421356237309503
0
LWPOLYLINE
5
140
100
AcDbEntity
8
0
100
AcDbPolyline
90
8
70
1
43
0.0
10
255.43750000000003
20
-31.100000000000001
42
0.41421356237309503
10
254.93750000000003
20
-31.600000000000001
10
254.93750000000003
20
-44.600000000000001
42
0.41421356237309503
10
255.43750000000003
20
-45.100000000000009
10
268.4375
20
-45.099999999999994
42
0.41421356237309503
10
268.9375
20
-44.600000000000001
10
268.9375
20
-31.600000000000001
42
0.41421356237309503
10
268.4375
20
-31.100000000000001
0
LWPOLYLINE
5
141
100
AcDbEntity
8
0
100
AcDbPolyline
90
8
70
1
43
0.0
10
230.83750000000003
20
-31.600000000000001
42
0.41421356237309503
10
230.33750000000001
20
-31.100000000000001
10
217.33750000000001
20
-31.100000000000001
42
0.41421356237309503
10
216.83750000000003
20
-31.600000000000001
10
216.83750000000003
20
-44.600000000000001
42
0.41421356237309503
10
217.33750000000001
20
-45.100000000000009
10
230.33750000000001
20
-45.100000000000009
42
0.41421356237309503
10
230.83750000000003
20
-44.600000000000001
0
LWPOLYLINE
5
142
100
AcDbEntity
8
0
100
AcDbPolyline
90
8
70
1
43
0.0
10
236.38750000000002
20
-45.100000000000009
10
249.38749999999999
20
-45.100000000000009
42
0.41421356237309503
10
249.88749999999999
20
-44.600000000000001
10
249.88749999999999
20
-31.600000000000001
42
0.41421356237309503
10
249.38749999999999
20
-31.100000000000001
10
236.38750000000002
20
-31.100000000000001
42
0.41421356237309503
10
235.88750000000002
20
-31.600000000000001
10
235.88750000000002
20
-44.600000000000001
42
0.41421356237309503
0
LWPOLYLINE
5
143
100
AcDbEntity
8
0
100
AcDbPolyline
90
8
70
1
43
0.0
10
259.41250000000002
20
-50.650000000000006
42
0.41421356237309503
10
258.91250000000002
20
-50.150000000000006
10
245.91250000000002
20
-50.150000000000006
42
0.41421356237309503
10
245.41250000000002
20
-50.650000000000006
10
245.41250000000002
20
-63.650000000000006
42
0.41421356237309503
10
245.91250000000002
20
-64.150000000000006
10
258.91250000000002
20
-64.150000000000006
42
0.41421356237309503
10
259.41250000000002
20
-63.650000000000006
0
LWPOLYLINE
5
144
100
AcDbEntity
8
0
100
AcDbPolyline
90
8
70
1
43
0.0
10
240.36250000000001
20
-50.650000000000006
42
0.41421356237309503
10
239.86250000000001
20
-50.150000000000006
10
226.86250000000001
20
-50.150000000000006
42
0.41421356237309503
10
226.36250000000004
20
-50.650000000000006
10
226.36250000000004
20
-63.650000000000006
42
0.41421356237309503
10
226.86250000000001
20
-64.150000000000006
10
239.86250000000001
20
-64.150000000000006
42
0.41421356237309503
10
240.36250000000001
20
-63.650000000000006
0
LWPOLYLINE
5
145
100
AcDbEntity
8
0
100
AcDbPolyline
90
8
70
1
43
0.0
10
250.67500000000001
20
-21.287500000000001
10
263.67500000000001
20
-21.287500000000001
42
0.41421356237309503
10
264.17500000000007
20
-20.787500000000001
10
264.17500000000007
20
-7.7875000000000005
42
0.41421356237309503
10
263.67500000000001
20
-7.2874999999999996
10
250.67500000000001
20
-7.2874999999999996
42
0.41421356237309503
10
250.17500000000001
20
-7.7875000000000005
10
250.17500000000001
20
-20.787500000000001
42
0.41421356237309503
0
LWPOLYLINE
5
146
100
AcDbEntity
8
0
100
AcDbPolyline
90
8
70
1
43
0.0
10
242.74375000000003
20
-107.80000000000001
42
0.41421356237309503
10
242.24375000000003
20
-107.30000000000001
10
229.24375000000001
20
-107.30000000000001
42
0.41421356237309503
10
228.74375000000001
20
-107.80000000000001
10
228.74375000000001
20
-120.8
42
0.41421356237309503
10
229.24375000000001
20
-121.30000000000001
10
242.24375000000003
20
-121.30000000000001
42
0.41421356237309503
10
242.74375000000003
20
-120.8
0
LWPOLYLINE
5
147
100
AcDbEntity
8
0
100
AcDbPolyline
90
8
70
1
43
0.0
10
241.15000000000003
20
-102.25000000000001
10
254.15000000000003
20
-102.25000000000001
42
0.41421356237309503
10
254.65000000000003
20
-101.75
10
254.65000000000003
20
-88.75
42
0.41421356237309503
10
254.15000000000003
20
-88.25
10
241.15000000000003
20
-88.250000000000014
42
0.41421356237309503
10
240.65000000000001
20
-88.75
10
240.65000000000001
20
-101.75
42
0.41421356237309503
0
LWPOLYLINE
5
148
100
AcDbEntity
8
0
100
AcDbPolyline
90
8
70
1
43
0.0
10
306.53750000000002
20
-45.100000000000009
42
0.41421356237309503
10
307.03750000000002
20
-44.600000000000001
10
307.03750000000002
20
-31.600000000000001
42
0.41421356237309503
10
306.53750000000002
20
-31.100000000000001
10
293.53750000000002
20
-31.100000000000001
42
0.41421356237309503
10
293.03750000000002
20
-31.600000000000001
10
293.03750000000002
20
-44.600000000000001
42
0.41421356237309503
10
293.53750000000002
20
-45.100000000000009
0
LWPOLYLINE
5
149
100
AcDbEntity
8
0
100
AcDbPolyline
90
8
70
1
43
0.0
10
274.48750000000007
20
-45.100000000000009
10
287.48750000000001
20
-45.100000000000009
42
0.41421356237309503
10
287.98750000000001
20
-44.600000000000001
10
287.98750000000001
20
-31.600000000000001
42
0.41421356237309503
10
287.48750000000001
20
-31.100000000000001
10
274.48750000000007
20
-31.100000000000001
42
0.41421356237309503
10
273.98750000000001
20
-31.600000000000001
10
273.98750000000001
20
-44.600000000000001
42
0.41421356237309503
0
LWPOLYLINE
5
150
100
AcDbEntity
8
0
100
AcDbPolyline
90
8
70
1
43
0.0
10
250.67500000000001
20
-69.200000000000003
42
0.41421356237309503
10
250.17500000000001
20
-69.700000000000003
10
250.17500000000001
20
-82.700000000000017
42
0.41421356237309503
10
250.67500000000001
20
-83.200000000000017
10
263.67500000000001
20
-83.200000000000003
42
0.41421356237309503
10
264.17500000000007
20
-82.700000000000017
10
264.17500000000007
20
-69.700000000000003
42
0.41421356237309503
10
263.67500000000001
20
-69.200000000000003
0
LWPOLYLINE
5
151
100
AcDbEntity
8
0
100
AcDbPolyline
90
8
70
1
43
0.0
10
244.62500000000003
20
-83.200000000000003
42
0.41421356237309503
10
245.12500000000003
20
-82.700000000000017
10
245.12500000000003
20
-69.700000000000003
42
0.41421356237309503
10
244.62500000000003
20
-69.200000000000003
10
231.625
20
-69.200000000000003
42
0.41421356237309503
10
231.125
20
-69.700000000000003
10
231.125
20
-82.700000000000017
42
0.41421356237309503
10
231.625
20
-83.200000000000017
0
LWPOLYLINE
5
152
100
AcDbEntity
8
0
100
AcDbPolyline
90
8
70
1
43
0.0
10
79.224999999999994
20
-126.06250000000001
10
92.224999999999994
20
-126.06250000000001
42
0.41421356237309503
10
92.724999999999994
20
-125.5625
10
92.724999999999994
20
-112.56250000000001
42
0.41421356237309503
10
92.224999999999994
20
-112.0625
10
79.224999999999994
20
-112.0625
42
0.41421356237309503
10
78.724999999999994
20
-112.56250000000001
10
78.724999999999994
20
-125.5625
42
0.41421356237309503
0
LWPOLYLINE
5
153
100
AcDbEntity
8
0
100
AcDbPolyline
90
8
70
1
43
0.0
10
107.80000000000001
20
-50.150000000000006
42
0.41421356237309503
10
107.30000000000001
20
-50.650000000000006
10
107.30000000000001
20
-63.650000000000006
42
0.41421356237309503
10
107.80000000000001
20
-64.150000000000006
10
120.8
20
-64.150000000000006
42
0.41421356237309503
10
121.30000000000001
20
-63.650000000000006
10
121.30000000000001
20
-50.650000000000006
42
0.41421356237309503
10
120.8
20
-50.150000000000006
0
LWPOLYLINE
5
154
100
AcDbEntity
8
0
100
AcDbPolyline
90
8
70
1
43
0.0
10
321.61250000000001
20
-63.650000000000006
42
0.41421356237309503
10
322.11250000000001
20
-64.150000000000006
10
335.11250000000007
20
-64.150000000000006
42
0.41421356237309503
10
335.61250000000001
20
-63.650000000000006
10
335.61250000000001
20
-50.650000000000006
42
0.41421356237309503
10
335.11250000000007
20
-50.150000000000006
10
322.11250000000001
20
-50.150000000000006
42
0.41421356237309503
10
321.61250000000001
20
-50.650000000000006
0
LWPOLYLINE
5
155
100
AcDbEntity
8
0
100
AcDbPolyline
90
8
70
1
43
0.0
10
122.08750000000002
20
-21.287500000000001
10
135.08750000000001
20
-21.287500000000001
42
0.41421356237309503
10
135.58750000000001
20
-20.787500000000001
10
135.58750000000001
20
-7.7875000000000005
42
0.41421356237309503
10
135.08750000000001
20
-7.2874999999999996
10
122.08750000000002
20
-7.2874999999999996
42
0.41421356237309503
10
121.58750000000001
20
-7.7875000000000005
10
121.58750000000001
20
-20.787500000000001
42
0.41421356237309503
0
LWPOLYLINE
5
156
100
AcDbEntity
8
0
100
AcDbPolyline
90
8
70
1
43
0.0
10
188.26249999999999
20
-63.650000000000006
42
0.41421356237309503
10
188.76249999999999
20
-64.150000000000006
10
201.76249999999999
20
-64.150000000000006
42
0.41421356237309503
10
202.26249999999999
20
-63.650000000000006
10
202.26249999999999
20
-50.650000000000006
42
0.41421356237309503
10
201.76249999999999
20
-50.150000000000006
10
188.76249999999999
20
-50.150000000000006
42
0.41421356237309503
10
188.26249999999999
20
-50.650000000000006
0
LWPOLYLINE
5
157
100
AcDbEntity
8
0
100
AcDbPolyline
90
8
70
1
43
0.0
10
121.58750000000001
20
-44.600000000000001
42
0.41421356237309503
10
122.08750000000002
20
-45.099999999999994
10
135.08750000000001
20
-45.099999999999994
42
0.41421356237309503
10
135.58750000000001
20
-44.600000000000001
10
135.58750000000001
20
-31.600000000000001
42
0.41421356237309503
10
135.08750000000001
20
-31.100000000000001
10
122.08750000000002
20
-31.100000000000001
42
0.41421356237309503
10
121.58750000000001
20
-31.600000000000001
0
LWPOLYLINE
5
158
100
AcDbEntity
8
0
100
AcDbPolyline
90
8
70
1
43
0.0
10
105.18125000000001
20
-82.700000000000017
42
0.41421356237309503
10
105.68125000000002
20
-83.200000000000003
10
106.18125000000001
20
-83.200000000000003
42
0.41421356237309503
10
106.68125000000002
20
-82.700000000000017
10
106.68125000000002
20
-69.700000000000003
42
0.41421356237309503
10
106.18125000000001
20
-69.200000000000003
10
105.68125000000002
20
-69.200000000000003
42
0.41421356237309503
10
105.18125000000001
20
-69.700000000000003
0
LWPOLYLINE
5
159
100
AcDbEntity
8
0
100
AcDbPolyline
90
8
70
1
43
0.0
10
73.962500000000006
20
-82.700000000000017
42
0.41421356237309503
10
74.462500000000006
20
-83.200000000000017
10
87.46250000000002
20
-83.200000000000003
42
0.41421356237309503
10
87.962500000000006
20
-82.700000000000017
10
87.962500000000006
20
-69.700000000000003
42
0.41421356237309503
10
87.46250000000002
20
-69.200000000000003
10
74.462500000000006
20
-69.200000000000003
42
0.41421356237309503
10
73.962500000000006
20
-69.700000000000003
0
LWPOLYLINE
5
160
100
AcDbEntity
8
0
100
AcDbPolyline
90
8
70
1
43
0.0
10
193.52500000000003
20
-69.200000000000003
42
0.41421356237309503
10
193.02500000000003
20
-69.700000000000003
10
193.02500000000003
20
-82.700000000000017
42
0.41421356237309503
10
193.52500000000003
20
-83.200000000000003
10
206.52500000000003
20
-83.200000000000003
42
0.41421356237309503
10
207.02500000000001
20
-82.700000000000017
10
207.02500000000003
20
-69.700000000000003
42
0.41421356237309503
10
206.52500000000003
20
-69.200000000000003
0
LWPOLYLINE
5
161
100
AcDbEntity
8
0
100
AcDbPolyline
90
8
70
1
43
0.0
10
125.80000000000001
20
-50.650000000000006
42
0.41421356237309503
10
125.30000000000001
20
-50.150000000000006
10
124.80000000000001
20
-50.150000000000006
42
0.41421356237309503
10
124.3
20
-50.650000000000006
10
124.3
20
-63.650000000000006
42
0.41421356237309503
10
124.80000000000001
20
-64.150000000000006
10
125.30000000000001
20
-64.150000000000006
42
0.41421356237309503
10
125.80000000000001
20
-63.650000000000006
0
LWPOLYLINE
5
162
100
AcDbEntity
8
0
100
AcDbPolyline
90
8
70
1
43
0.0
10
127.18125000000001
20
-83.200000000000003
10
127.68125000000001
20
-83.200000000000017
42
0.41421356237309503
10
128.18125000000003
20
-82.700000000000017
10
128.18125000000003
20
-69.700000000000003
42
0.41421356237309503
10
127.68125000000001
20
-69.200000000000003
10
127.18125000000001
20
-69.200000000000003
42
0.41421356237309503
10
126.68125000000001
20
-69.700000000000003
10
126.68125000000001
20
-82.700000000000017
42
0.41421356237309503
0
LWPOLYLINE
5
163
100
AcDbEntity
8
0
100
AcDbPolyline
90
8
70
1
43
0.0
10
87.962500000000006
20
-50.650000000000006
42
0.41421356237309503
10
87.46250000000002
20
-50.150000000000006
10
74.462500000000006
20
-50.150000000000006
42
0.41421356237309503
10
73.962500000000006
20
-50.650000000000006
10
73.962500000000006
20
-63.650000000000006
42
0.41421356237309503
10
74.462500000000006
20
-64.150000000000006
10
87.46250000000002
20
-64.150000000000006
42
0.41421356237309503
10
87.96250000000002
20
-63.650000000000006
0
LWPOLYLINE
5
164
100
AcDbEntity
8
0
100
AcDbPolyline
90
8
70
1
43
0.0
10
116.53750000000001
20
-31.600000000000001
42
0.41421356237309503
10
116.03749999999999
20
-31.100000000000001
10
103.03750000000001
20
-31.100000000000001
42
0.41421356237309503
10
102.53749999999999
20
-31.600000000000001
10
102.53749999999999
20
-44.600000000000001
42
0.41421356237309503
10
103.03750000000001
20
-45.100000000000009
10
116.03749999999999
20
-45.100000000000009
42
0.41421356237309503
10
116.53750000000001
20
-44.600000000000001
0
LWPOLYLINE
5
165
100
AcDbEntity
8
0
100
AcDbPolyline
90
8
70
1
43
0.0
10
207.8125
20
-64.150000000000006
10
220.8125
20
-64.150000000000006
42
0.41421356237309503
10
221.3125
20
-63.650000000000006
10
221.3125
20
-50.650000000000006
42
0.41421356237309503
10
220.8125
20
-50.150000000000006
10
207.8125
20
-50.150000000000006
42
0.41421356237309503
10
207.31250000000003
20
-50.650000000000006
10
207.31250000000003
20
-63.650000000000006
42
0.41421356237309503
0
LWPOLYLINE
5
166
100
AcDbEntity
8
0
100
AcDbPolyline
90
8
70
1
43
0.0
10
103.3
20
-50.150000000000006
10
103.80000000000001
20
-50.149999999999999
42
-0.41421356237309503
10
104.30000000000001
20
-50.650000000000006
10
104.30000000000001
20
-63.650000000000006
42
-0.41421356237309503
10
103.80000000000001
20
-64.150000000000006
10
103.3
20
-64.149999999999991
42
-0.41421356237309503
10
102.80000000000001
20
-63.650000000000006
10
102.80000000000001
20
-50.650000000000006
42
-0.41421356237309503
0
LWPOLYLINE
5
167
100
AcDbEntity
8
0
100
AcDbPolyline
90
8
70
1
43
0.0
10
74.462500000000006
20
-102.25000000000001
10
87.46250000000002
20
-102.25000000000001
42
0.41421356237309503
10
87.962500000000006
20
-101.75
10
87.962500000000006
20
-88.75
42
0.41421356237309503
10
87.46250000000002
20
-88.250000000000014
10
74.462500000000006
20
-88.250000000000014
42
0.41421356237309503
10
73.962500000000006
20
-88.75
10
73.962500000000006
20
-101.75
42
0.41421356237309503
0
LWPOLYLINE
5
168
100
AcDbEntity
8
0
100
AcDbPolyline
90
8
70
1
43
0.0
10
317.35000000000002
20
-88.25
42
0.41421356237309503
10
316.85000000000002
20
-88.75
10
316.85000000000002
20
-101.75
42
0.41421356237309503
10
317.35000000000002
20
-102.25000000000001
10
330.35000000000002
20
-102.25000000000001
42
0.41421356237309503
10
330.85000000000002
20
-101.75
10
330.85000000000002
20
-88.75
42
0.41421356237309503
10
330.35000000000002
20
-88.25
0
LWPOLYLINE
5
169
100
AcDbEntity
8
0
100
AcDbPolyline
90
8
70
1
43
0.0
10
326.875
20
-83.200000000000003
10
339.87500000000006
20
-83.200000000000003
42
0.41421356237309503
10
340.375
20
-82.700000000000017
10
340.375
20
-69.700000000000003
42
0.41421356237309503
10
339.87500000000006
20
-69.200000000000003
10
326.875
20
-69.200000000000003
42
0.41421356237309503
10
326.375
20
-69.700000000000003
10
326.375
20
-82.700000000000017
42
0.41421356237309503
0
LWPOLYLINE
5
170
100
AcDbEntity
8
0
100
AcDbPolyline
90
8
70
1
43
0.0
10
187.97499999999999
20
-69.700000000000003
10
187.97499999999999
20
-82.700000000000017
42
-0.41421356237309503
10
187.47499999999999
20
-83.200000000000017
10
174.47500000000002
20
-83.200000000000017
42
-0.41421356237309503
10
173.97500000000002
20
-82.700000000000017
10
173.97500000000002
20
-69.700000000000003
42
-0.41421356237309503
10
174.47500000000002
20
-69.200000000000003
10
187.47499999999999
20
-69.200000000000003
42
-0.41421356237309503
0
LWPOLYLINE
5
171
100
AcDbEntity
8
0
100
AcDbPolyline
90
8
70
1
43
0.0
10
74.462500000000006
20
-45.099999999999994
10
87.46250000000002
20
-45.099999999999994
42
0.41421356237309503
10
87.96250000000002
20
-44.600000000000001
10
87.962500000000006
20
-31.600000000000001
42
0.41421356237309503
10
87.46250000000002
20
-31.100000000000001
10
74.462500000000006
20
-31.100000000000001
42
0.41421356237309503
10
73.962500000000006
20
-31.600000000000001
10
73.962500000000006
20
-44.600000000000001
42
0.41421356237309503
0
LWPOLYLINE
5
172
100
AcDbEntity
8
0
100
AcDbPolyline
90
8
70
1
43
0.0
10
117.32500000000002
20
-112.0625
42
0.41421356237309503
10
116.82500000000002
20
-112.56250000000001
10
116.82500000000002
20
-125.5625
42
0.41421356237309503
10
117.32500000000002
20
-126.06250000000001
10
130.32499999999999
20
-126.06250000000001
42
0.41421356237309503
10
130.82499999999999
20
-125.5625
10
130.82499999999999
20
-112.56250000000001
42
0.41421356237309503
10
130.32499999999999
20
-112.0625
0
LWPOLYLINE
5
173
100
AcDbEntity
8
0
100
AcDbPolyline
90
8
70
1
43
0.0
10
103.03750000000001
20
-7.2874999999999996
10
116.03749999999999
20
-7.2874999999999934
42
-0.41421356237309503
10
116.53750000000001
20
-7.7875000000000005
10
116.53749999999999
20
-20.787500000000001
42
-0.41421356237309503
10
116.03749999999999
20
-21.287500000000001
10
103.03750000000001
20
-21.287500000000009
42
-0.41421356237309503
10
102.53749999999999
20
-20.787500000000001
10
102.53749999999999
20
-7.7875000000000005
42
-0.41421356237309503
0
LWPOLYLINE
5
174
100
AcDbEntity
8
0
100
AcDbPolyline
90
8
70
1
43
0.0
10
110.18125000000001
20
-69.200000000000003
10
123.18125000000002
20
-69.200000000000003
42
-0.41421356237309503
10
123.68125000000003
20
-69.700000000000003
10
123.68125000000003
20
-82.700000000000017
42
-0.41421356237309503
10
123.18125000000002
20
-83.200000000000017
10
110.18125000000001
20
-83.200000000000017
42
-0.41421356237309503
10
109.68125000000001
20
-82.700000000000017
10
109.68125000000001
20
-69.700000000000003
42
-0.41421356237309503
0
LWPOLYLINE
5
175
100
AcDbEntity
8
0
100
AcDbPolyline
90
8
70
1
43
0.0
10
303.0625
20
-21.287500000000001
10
316.0625
20
-21.287500000000001
42
0.41421356237309503
10
316.5625
20
-20.787500000000001
10
316.5625
20
-7.7875000000000005
42
0.41421356237309503
10
316.0625
20
-7.2874999999999996
10
303.0625
20
-7.2874999999999996
42
0.41421356237309503
10
302.5625
20
-7.7875000000000005
10
302.5625
20
-20.787500000000001
42
0.41421356237309503
0
LWPOLYLINE
5
176
100
AcDbEntity
8
0
100
AcDbPolyline
90
8
70
1
43
0.0
10
164.16250000000002
20
-50.650000000000006
10
164.16250000000002
20
-63.650000000000006
42
-0.41421356237309503
10
163.66250000000002
20
-64.150000000000006
10
150.66249999999999
20
-64.150000000000006
42
-0.41421356237309503
10
150.16249999999999
20
-63.650000000000006
10
150.16249999999999
20
-50.650000000000006
42
-0.41421356237309503
10
150.66249999999999
20
-50.150000000000006
10
163.66250000000002
20
-50.149999999999999
42
-0.41421356237309503
0
LWPOLYLINE
5
177
100
AcDbEntity
8
0
100
AcDbPolyline
90
8
70
1
43
0.0
10
183.21250000000003
20
-50.650000000000006
10
183.21250000000003
20
-63.650000000000006
42
-0.41421356237309503
10
182.71250000000003
20
-64.150000000000006
10
169.71250000000001
20
-64.150000000000006
42
-0.41421356237309503
10
169.21250000000001
20
-63.650000000000006
10
169.21250000000001
20
-50.650000000000006
42
-0.41421356237309503
10
169.71250000000001
20
-50.150000000000006
10
182.71250000000003
20
-50.149999999999999
42
-0.41421356237309503
0
LWPOLYLINE
5
178
100
AcDbEntity
8
0
100
AcDbPolyline
90
8
70
1
43
0.0
10
141.13749999999999
20
-21.287500000000001
10
154.13749999999999
20
-21.287500000000001
42
0.41421356237309503
10
154.63750000000002
20
-20.787500000000001
10
154.63749999999999
20
-7.7875000000000005
42
0.41421356237309503
10
154.13749999999999
20
-7.2874999999999996
10
141.13749999999999
20
-7.2874999999999996
42
0.41421356237309503
10
140.63749999999999
20
-7.7875000000000005
10
140.63749999999999
20
-20.787500000000001
42
0.41421356237309503
0
LWPOLYLINE
5
179
100
AcDbEntity
8
0
100
AcDbPolyline
90
8
70
1
43
0.0
10
226.07500000000002
20
-69.700000000000003
42
0.41421356237309503
10
225.57500000000002
20
-69.200000000000003
10
212.57499999999999
20
-69.200000000000003
42
0.41421356237309503
10
212.07499999999999
20
-69.700000000000003
10
212.07499999999999
20
-82.700000000000017
42
0.41421356237309503
10
212.57499999999999
20
-83.200000000000017
10
225.57500000000002
20
-83.200000000000003
42
0.41421356237309503
10
226.07500000000002
20
-82.700000000000017
0
LWPOLYLINE
5
180
100
AcDbEntity
8
0
100
AcDbPolyline
90
8
70
1
43
0.0
10
131.61250000000001
20
-50.150000000000006
10
144.61250000000001
20
-50.149999999999999
42
-0.41421356237309503
10
145.11250000000001
20
-50.650000000000006
10
145.11250000000001
20
-63.650000000000006
42
-0.41421356237309503
10
144.61250000000001
20
-64.150000000000006
10
131.61250000000001
20
-64.150000000000006
42
-0.41421356237309503
10
131.11250000000001
20
-63.650000000000006
10
131.11250000000001
20
-50.650000000000006
42
-0.41421356237309503
0
LWPOLYLINE
5
181
100
AcDbEntity
8
0
100
AcDbPolyline
90
8
70
1
43
0.0
10
111.77500000000002
20
-112.56250000000001
42
0.41421356237309503
10
111.27500000000001
20
-112.0625
10
98.275000000000006
20
-112.0625
42
0.41421356237309503
10
97.77500000000002
20
-112.56250000000001
10
97.775000000000006
20
-125.5625
42
0.41421356237309503
10
98.275000000000006
20
-126.06250000000001
10
111.27500000000001
20
-126.06250000000001
42
0.41421356237309503
10
111.77500000000002
20
-125.5625
0
LWPOLYLINE
5
182
100
AcDbEntity
8
0
100
AcDbPolyline
90
8
70
1
43
0.0
10
98.275000000000006
20
-93.012500000000017
42
0.41421356237309503
10
97.77500000000002
20
-93.512500000000003
10
97.775000000000006
20
-106.51250000000002
42
0.41421356237309503
10
98.275000000000006
20
-107.01250000000002
10
111.27500000000001
20
-107.01250000000002
42
0.41421356237309503
10
111.77500000000002
20
-106.51250000000002
10
111.77500000000002
20
-93.512500000000003
42
0.41421356237309503
10
111.27500000000001
20
-93.012500000000017
0
LWPOLYLINE
5
183
100
AcDbEntity
8
0
100
AcDbPolyline
90
8
70
1
43
0.0
10
216.55000000000001
20
-88.75
42
0.41421356237309503
10
216.05000000000004
20
-88.250000000000014
10
203.05000000000004
20
-88.250000000000014
42
0.41421356237309503
10
202.55000000000001
20
-88.75
10
202.55000000000001
20
-101.75
42
0.41421356237309503
10
203.05000000000004
20
-102.25000000000001
10
216.05000000000004
20
-102.25000000000001
42
0.41421356237309503
10
216.55000000000001
20
-101.75
0
LWPOLYLINE
5
184
100
AcDbEntity
8
0
100
AcDbPolyline
90
8
70
1
43
0.0
10
137.96875
20
-88.75
10
137.96875000000003
20
-101.75
42
-0.41421356237309503
10
137.46875
20
-102.25000000000001
10
124.46875
20
-102.25
42
-0.41421356237309503
10
123.96875000000001
20
-101.75
10
123.96875
20
-88.75
42
-0.41421356237309503
10
124.46875
20
-88.25
10
137.46875
20
-88.250000000000014
42
-0.41421356237309503
0
LWPOLYLINE
5
185
100
AcDbEntity
8
0
100
AcDbPolyline
90
8
70
1
43
0.0
10
197.5
20
-88.75
42
0.41421356237309503
10
197.00000000000003
20
-88.250000000000014
10
184.00000000000003
20
-88.250000000000014
42
0.41421356237309503
10
183.5
20
-88.75
10
183.5
20
-101.75
42
0.41421356237309503
10
184.00000000000003
20
-102.25000000000001
10
197.00000000000003
20
-102.25000000000001
42
0.41421356237309503
10
197.5
20
-101.75
0
LWPOLYLINE
5
186
100
AcDbEntity
8
0
100
AcDbPolyline
90
8
70
1
43
0.0
10
331.13750000000005
20
-44.600000000000001
42
0.41421356237309503
10
331.63749999999999
20
-45.099999999999994
10
344.63749999999999
20
-45.099999999999994
42
0.41421356237309503
10
345.13749999999993
20
-44.600000000000001
10
345.13749999999993
20
-31.600000000000001
42
0.41421356237309503
10
344.63749999999999
20
-31.100000000000001
10
331.63749999999999
20
-31.100000000000001
42
0.41421356237309503
10
331.13750000000005
20
-31.600000000000001
0
LWPOLYLINE
5
187
100
AcDbEntity
8
0
100
AcDbPolyline
90
8
70
1
43
0.0
10
357.77449999999999
20
-47.100000000000001
42
0.41421356237309503
10
358.27449999999999
20
-46.600000000000001
10
358.27449999999999
20
-32.600000000000001
42
0.41421356237309503
10
357.77449999999999
20
-32.100000000000001
10
351.77449999999999
20
-32.100000000000001
42
0.41421356237309503
10
351.27450000000005
20
-32.600000000000001
10
351.27450000000005
20
-46.600000000000001
42
0.41421356237309503
10
351.77449999999999
20
-47.100000000000001
0
LWPOLYLINE
5
188
100
AcDbEntity
8
0
100
AcDbPolyline
90
8
70
1
43
0.0
10
359.97500000000002
20
-63.650000000000006
42
0.41421356237309503
10
360.47500000000008
20
-64.150000000000006
10
360.97500000000002
20
-64.150000000000006
42
0.41421356237309503
10
361.47500000000002
20
-63.650000000000006
10
361.47500000000002
20
-50.650000000000006
42
0.41421356237309503
10
360.97500000000002
20
-50.150000000000006
10
360.47500000000008
20
-50.150000000000006
42
0.41421356237309503
10
359.97500000000008
20
-50.650000000000006
0
LWPOLYLINE
5
189
100
AcDbEntity
8
0
100
AcDbPolyline
90
8
70
1
43
0.0
10
312.08749999999998
20
-31.600000000000001
10
312.08749999999998
20
-44.600000000000001
42
0.41421356237309503
10
312.58749999999998
20
-45.099999999999994
10
325.58749999999998
20
-45.100000000000009
42
0.41421356237309503
10
326.08749999999998
20
-44.600000000000001
10
326.08749999999992
20
-31.600000000000001
42
0.41421356237309503
10
325.58749999999998
20
-31.100000000000001
10
312.58749999999998
20
-31.100000000000001
42
0.41421356237309503
0
LWPOLYLINE
5
190
100
AcDbEntity
8
0
100
AcDbPolyline
90
8
70
1
43
0.0
10
193.52500000000003
20
-7.2874999999999996
42
0.41421356237309503
10
193.02500000000003
20
-7.7875000000000005
10
193.02500000000003
20
-20.787500000000001
42
0.41421356237309503
10
193.52500000000003
20
-21.287500000000001
10
206.52500000000003
20
-21.287500000000001
42
0.41421356237309503
10
207.02500000000003
20
-20.787500000000001
10
207.02500000000001
20
-7.7875000000000005
42
0.41421356237309503
10
206.52500000000003
20
-7.2874999999999996
0
LWPOLYLINE
5
191
100
AcDbEntity
8
0
100
AcDbPolyline
90
8
70
1
43
0.0
10
173.68750000000003
20
-31.600000000000001
42
0.41421356237309503
10
173.1875
20
-31.100000000000001
10
160.1875
20
-31.100000000000001
42
0.41421356237309503
10
159.6875
20
-31.600000000000001
10
159.6875
20
-44.600000000000001
42
0.41421356237309503
10
160.1875
20
-45.100000000000009
10
173.1875
20
-45.100000000000009
42
0.41421356237309503
10
173.68750000000003
20
-44.600000000000001
0
LWPOLYLINE
5
192
100
AcDbEntity
8
0
100
AcDbPolyline
90
8
70
1
43
0.0
10
337.49374999999998
20
-121.30000000000001
42
0.41421356237309503
10
337.99374999999998
20
-120.8
10
337.99374999999998
20
-107.80000000000001
42
0.41421356237309503
10
337.49374999999998
20
-107.30000000000001
10
324.49374999999998
20
-107.30000000000001
42
0.41421356237309503
10
323.99374999999998
20
-107.80000000000001
10
323.99374999999998
20
-120.8
42
0.41421356237309503
10
324.49374999999998
20
-121.30000000000001
0
LWPOLYLINE
5
193
100
AcDbEntity
8
0
100
AcDbPolyline
90
8
70
1
43
0.0
10
173.1875
20
-21.287500000000001
42
0.41421356237309503
10
173.68750000000003
20
-20.787500000000001
10
173.68750000000003
20
-7.7875000000000005
42
0.41421356237309503
10
173.1875
20
-7.2874999999999996
10
160.1875
20
-7.2874999999999996
42
0.41421356237309503
10
159.6875
20
-7.7875000000000005
10
159.6875
20
-20.787500000000001
42
0.41421356237309503
10
160.1875
20
-21.287500000000001
0
LWPOLYLINE
5
194
100
AcDbEntity
8
0
100
AcDbPolyline
90
8
70
1
43
0.0
10
154.92500000000001
20
-82.700000000000017
42
0.41421356237309503
10
155.42500000000001
20
-83.200000000000017
10
168.42500000000001
20
-83.200000000000017
42
0.41421356237309503
10
168.92500000000001
20
-82.700000000000017
10
168.92500000000001
20
-69.700000000000003
42
0.41421356237309503
10
168.42500000000001
20
-69.200000000000003
10
155.42500000000001
20
-69.200000000000003
42
0.41421356237309503
10
154.92500000000001
20
-69.700000000000003
0
LWPOLYLINE
5
195
100
AcDbEntity
8
0
100
AcDbPolyline
90
8
70
1
43
0.0
10
354.66250000000002
20
-50.650000000000006
42
0.41421356237309503
10
354.16250000000002
20
-50.150000000000006
10
341.16250000000002
20
-50.150000000000006
42
0.41421356237309503
10
340.66250000000002
20
-50.650000000000006
10
340.66250000000002
20
-63.650000000000006
42
0.41421356237309503
10
341.16250000000002
20
-64.150000000000006
10
354.16250000000002
20
-64.150000000000006
42
0.41421356237309503
10
354.66250000000002
20
-63.650000000000006
0
LWPOLYLINE
5
196
100
AcDbEntity
8
0
100
AcDbPolyline
90
8
70
1
43
0.0
10
355.89325000000002
20
-70.700000000000003
42
0.41421356237309503
10
355.39325000000008
20
-70.200000000000003
10
349.39325000000002
20
-70.200000000000003
42
0.41421356237309503
10
348.89325000000008
20
-70.700000000000003
10
348.89325000000008
20
-84.700000000000003
42
0.41421356237309503
10
349.39325000000002
20
-85.200000000000017
10
355.39325000000008
20
-85.200000000000017
42
0.41421356237309503
10
355.89325000000002
20
-84.700000000000003
0
LWPOLYLINE
5
197
100
AcDbEntity
8
0
100
AcDbPolyline
90
8
70
1
43
0.0
10
335.11250000000007
20
-21.287500000000001
42
0.41421356237309503
10
335.61250000000001
20
-20.787500000000001
10
335.61250000000001
20
-7.7875000000000005
42
0.41421356237309503
10
335.11250000000007
20
-7.2874999999999996
10
322.11250000000001
20
-7.2874999999999996
42
0.41421356237309503
10
321.61250000000001
20
-7.7875000000000005
10
321.61250000000001
20
-20.787500000000001
42
0.41421356237309503
10
322.11250000000001
20
-21.287500000000001
0
LWPOLYLINE
5
198
100
AcDbEntity
8
0
100
AcDbPolyline
90
8
70
1
43
0.0
10
164.95000000000002
20
-88.25
10
177.94999999999999
20
-88.25
42
-0.41421356237309503
10
178.44999999999999
20
-88.75
10
178.44999999999999
20
-101.75
42
-0.41421356237309503
10
177.94999999999999
20
-102.25000000000001
10
164.95000000000002
20
-102.25000000000001
42
-0.41421356237309503
10
164.44999999999999
20
-101.75
10
164.44999999999999
20
-88.75
42
-0.41421356237309503
0
LWPOLYLINE
5
199
100
AcDbEntity
8
0
100
AcDbPolyline
90
8
70
1
43
0.0
10
341.16250000000002
20
-21.287500000000001
10
354.16250000000002
20
-21.287500000000001
42
0.41421356237309503
10
354.66250000000002
20
-20.787500000000001
10
354.66250000000002
20
-7.7875000000000005
42
0.41421356237309503
10
354.16250000000002
20
-7.2874999999999996
10
341.16250000000002
20
-7.2874999999999996
42
0.41421356237309503
10
340.66250000000002
20
-7.7875000000000005
10
340.66250000000002
20
-20.787500000000001
42
0.41421356237309503
0
LWPOLYLINE
5
200
100
AcDbEntity
8
0
100
AcDbPolyline
90
8
70
1
43
0.0
10
192.73750000000004
20
-31.600000000000001
42
0.41421356237309503
10
192.23750000000001
20
-31.100000000000001
10
179.23750000000001
20
-31.100000000000001
42
0.41421356237309503
10
178.73750000000001
20
-31.600000000000001
10
178.73750000000001
20
-44.600000000000001
42
0.41421356237309503
10
179.23750000000001
20
-45.099999999999994
10
192.23750000000001
20
-45.099999999999994
42
0.41421356237309503
10
192.73750000000004
20
-44.600000000000001
0
LWPOLYLINE
5
201
100
AcDbEntity
8
0
100
AcDbPolyline
90
8
70
1
43
0.0
10
344.63074999999998
20
-89.25
10
350.63074999999998
20
-89.249999999999957
42
-0.41421356237309503
10
351.13075000000003
20
-89.75
10
351.13074999999992
20
-103.75
42
-0.41421356237309503
10
350.63074999999998
20
-104.25
10
344.63074999999998
20
-104.24999999999997
42
-0.41421356237309503
10
344.13074999999998
20
-103.75
10
344.13074999999998
20
-89.75
42
-0.41421356237309503
0
ARC
5
202
100
AcDbEntity
8
0
100
AcDbCircle
10
182.74375000000003
20
-103.80000000000001
30
0
40
0.50000000000000711
210
0
220
-0
230
1
100
AcDbArc
50
90
51
180
0
LINE
5
203
100
AcDbEntity
8
0
100
AcDbLine
10
182.24375000000003
20
-108.80000000000001
30
0
11
182.24375000000003
21
-122.80000000000001
31
0
0
LWPOLYLINE
5
204
100
AcDbEntity
8
0
100
AcDbPolyline
90
8
70
1
43
0.0
10
211.28749999999999
20
-45.099999999999994
42
0.41421356237309503
10
211.78750000000002
20
-44.600000000000001
10
211.78750000000002
20
-31.600000000000001
42
0.41421356237309503
10
211.28749999999999
20
-31.100000000000001
10
198.28749999999999
20
-31.100000000000001
42
0.41421356237309503
10
197.78749999999999
20
-31.600000000000001
10
197.78749999999999
20
-44.600000000000001
42
0.41421356237309503
10
198.28749999999999
20
-45.099999999999994
0
LWPOLYLINE
5
205
100
AcDbEntity
8
0
100
AcDbPolyline
90
8
70
1
43
0.0
10
378.47500000000002
20
-50.650000000000006
10
378.47500000000014
20
-63.650000000000006
42
-0.41421356237309503
10
377.97500000000008
20
-64.150000000000006
10
364.97500000000002
20
-64.149999999999977
42
-0.41421356237309503
10
364.47500000000002
20
-63.650000000000006
10
364.47500000000002
20
-50.650000000000006
42
-0.41421356237309503
10
364.97500000000002
20
-50.150000000000006
10
377.97500000000008
20
-50.150000000000034
42
-0.41421356237309503
0
LINE
5
206
100
AcDbEntity
8
0
100
AcDbLine
10
189.24375000000001
20
-108.80000000000001
30
0
11
189.24375000000001
21
-103.80000000000001
31
0
0
LINE
5
207
100
AcDbEntity
8
0
100
AcDbLine
10
188.74375000000001
20
-103.30000000000001
30
0
11
182.74375000000003
21
-103.3
31
0
0
LINE
5
208
100
AcDbEntity
8
0
100
AcDbLine
10
182.74375000000003
20
-123.3
30
0
11
188.74375000000001
21
-123.3
31
0
0
LINE
5
209
100
AcDbEntity
8
0
100
AcDbLine
10
189.24375000000001
20
-108.80000000000001
30
0
11
189.24375000000001
21
-122.80000000000001
31
0
0
ARC
5
210
100
AcDbEntity
8
0
100
AcDbCircle
10
188.74375000000001
20
-103.80000000000003
30
0
40
0.50000000000000711
210
0
220
-0
230
1
100
AcDbArc
50
0
51
90
0
LWPOLYLINE
5
211
100
AcDbEntity
8
0
100
AcDbPolyline
90
8
70
1
43
0.0
10
74.462500000000006
20
-7.2874999999999996
42
0.41421356237309503
10
73.962500000000006
20
-7.7875000000000005
10
73.962500000000006
20
-20.787500000000001
42
0.41421356237309503
10
74.462500000000006
20
-21.287500000000001
10
87.46250000000002
20
-21.287500000000001
42
0.41421356237309503
10
87.96250000000002
20
-20.787500000000001
10
87.96250000000002
20
-7.7875000000000005
42
0.41421356237309503
10
87.46250000000002
20
-7.2874999999999996
0
LWPOLYLINE
5
212
100
AcDbEntity
8
0
100
AcDbPolyline
90
8
70
1
43
0.0
10
381.47500000000002
20
-50.650000000000006
10
381.47500000000002
20
-63.650000000000006
42
0.41421356237309503
10
381.97500000000002
20
-64.150000000000006
10
382.47500000000002
20
-64.150000000000006
42
0.41421356237309503
10
382.97500000000002
20
-63.650000000000006
10
382.97500000000002
20
-50.650000000000006
42
0.41421356237309503
10
382.47500000000002
20
-50.150000000000006
10
381.97500000000002
20
-50.150000000000006
42
0.41421356237309503
0
LWPOLYLINE
5
213
100
AcDbEntity
8
0
100
AcDbPolyline
90
8
70
1
43
0.0
10
226.07500000000002
20
-7.7875000000000005
42
0.41421356237309503
10
225.57500000000002
20
-7.2874999999999996
10
212.57499999999999
20
-7.2874999999999996
42
0.41421356237309503
10
212.07499999999999
20
-7.7875000000000005
10
212.07499999999999
20
-20.787500000000001
42
0.41421356237309503
10
212.57499999999999
20
-21.287500000000001
10
225.57500000000002
20
-21.287500000000001
42
0.41421356237309503
10
226.07500000000002
20
-20.787500000000001
0
ARC
5
214
100
AcDbEntity
8
0
100
AcDbCircle
10
188.74375000000001
20
-122.80000000000001
30
0
40
0.49999999999998934
210
0
220
0
230
1
100
AcDbArc
50
-90
51
0
0
LWPOLYLINE
5
215
100
AcDbEntity
8
0
100
AcDbPolyline
90
8
70
1
43
0.0
10
297.51249999999999
20
-7.7875000000000005
42
0.41421356237309503
10
297.01250000000005
20
-7.2874999999999996
10
284.01249999999999
20
-7.2874999999999996
42
0.41421356237309503
10
283.51249999999999
20
-7.7875000000000005
10
283.51249999999999
20
-20.787500000000001
42
0.41421356237309503
10
284.01249999999999
20
-21.287500000000001
10
297.01250000000005
20
-21.287500000000001
42
0.41421356237309503
10
297.51249999999999
20
-20.787500000000001
0
LWPOLYLINE
5
216
100
AcDbEntity
8
0
100
AcDbPolyline
90
8
70
1
43
0.0
10
366.56875000000008
20
-88.75
10
366.56875000000002
20
-101.75
42
-0.41421356237309503
10
366.06875000000002
20
-102.25000000000001
10
353.06875000000002
20
-102.25000000000006
42
-0.41421356237309503
10
352.56875000000002
20
-101.75
10
352.56875000000008
20
-88.75
42
-0.41421356237309503
10
353.06875000000002
20
-88.250000000000014
10
366.06875000000002
20
-88.249999999999957
42
-0.41421356237309503
0
LWPOLYLINE
5
217
100
AcDbEntity
8
0
100
AcDbPolyline
90
8
70
1
43
0.0
10
160.1875
20
-107.30000000000001
42
0.41421356237309503
10
159.6875
20
-107.80000000000001
10
159.6875
20
-120.8
42
0.41421356237309503
10
160.1875
20
-121.30000000000001
10
173.1875
20
-121.30000000000001
42
0.41421356237309503
10
173.68750000000003
20
-120.8
10
173.68750000000003
20
-107.80000000000001
42
0.41421356237309503
10
173.1875
20
-107.30000000000001
0
LWPOLYLINE
5
218
100
AcDbEntity
8
0
100
AcDbPolyline
90
8
70
1
43
0.0
10
375.15050000000008
20
-32.600000000000001
10
375.15050000000002
20
-46.600000000000001
42
0.41421356237309503
10
375.65050000000008
20
-47.100000000000001
10
381.65050000000002
20
-47.100000000000001
42
0.41421356237309503
10
382.15050000000008
20
-46.600000000000001
10
382.15049999999997
20
-32.600000000000001
42
0.41421356237309503
10
381.65050000000002
20
-32.100000000000001
10
375.65050000000008
20
-32.100000000000001
42
0.41421356237309503
0
LWPOLYLINE
5
219
100
AcDbEntity
8
0
100
AcDbPolyline
90
8
70
1
43
0.0
10
357.83125000000007
20
-69.200000000000003
42
0.41421356237309503
10
357.33125000000001
20
-69.700000000000003
10
357.33125000000001
20
-82.700000000000017
42
0.41421356237309503
10
357.83125000000007
20
-83.200000000000003
10
370.83125000000001
20
-83.200000000000003
42
0.41421356237309503
10
371.33125000000001
20
-82.700000000000017
10
371.33125000000001
20
-69.700000000000003
42
0.41421356237309503
10
370.83125000000001
20
-69.200000000000003
0
LINE
5
220
100
AcDbEntity
8
0
100
AcDbLine
10
182.24375000000003
20
-103.79999999999998
30
0
11
182.24375000000003
21
-108.80000000000001
31
0
0
LWPOLYLINE
5
221
100
AcDbEntity
8
0
100
AcDbPolyline
90
8
70
1
43
0.0
10
368.00675000000007
20
-89.75
10
368.00675000000007
20
-103.75
42
0.41421356237309503
10
368.50675000000001
20
-104.25
10
374.50675000000001
20
-104.25
42
0.41421356237309503
10
375.00675000000001
20
-103.75
10
375.00675000000001
20
-89.75
42
0.41421356237309503
10
374.50675000000001
20
-89.25
10
368.50675000000001
20
-89.249999999999986
42
0.41421356237309503
0
LWPOLYLINE
5
222
100
AcDbEntity
8
0
100
AcDbPolyline
90
8
70
1
43
0.0
10
359.71249999999998
20
-44.600000000000001
42
0.41421356237309503
10
360.21250000000003
20
-45.100000000000009
10
373.21249999999998
20
-45.100000000000009
42
0.41421356237309503
10
373.71249999999998
20
-44.600000000000001
10
373.71249999999998
20
-31.600000000000001
42
0.41421356237309503
10
373.21249999999998
20
-31.100000000000001
10
360.21250000000003
20
-31.100000000000001
42
0.41421356237309503
10
359.71249999999998
20
-31.600000000000001
0
ARC
5
223
100
AcDbEntity
8
0
100
AcDbCircle
10
182.74375000000003
20
-122.80000000000001
30
0
40
0.50000000000000711
210
0
220
0
230
1
100
AcDbArc
50
180
51
270
0
LWPOLYLINE
5
224
100
AcDbEntity
8
0
100
AcDbPolyline
90
8
70
1
43
0.0
10
348.30624999999998
20
-107.30000000000001
10
361.30625000000003
20
-107.30000000000004
42
-0.41421356237309503
10
361.80624999999998
20
-107.80000000000001
10
361.80625000000009
20
-120.8
42
-0.41421356237309503
10
361.30625000000003
20
-121.30000000000001
10
348.30624999999998
20
-121.29999999999997
42
-0.41421356237309503
10
347.80624999999998
20
-120.8
10
347.80624999999998
20
-107.80000000000001
42
-0.41421356237309503
0
LWPOLYLINE
5
225
100
AcDbEntity
8
0
100
AcDbPolyline
90
8
70
1
43
0.0
10
383.23749999999995
20
-107.80000000000001
10
383.23750000000007
20
-120.8
42
-0.41421356237309503
10
382.73750000000001
20
-121.30000000000001
10
369.73750000000001
20
-121.29999999999997
42
-0.41421356237309503
10
369.23750000000007
20
-120.8
10
369.23749999999995
20
-107.80000000000001
42
-0.41421356237309503
10
369.73750000000001
20
-107.30000000000001
10
382.73750000000001
20
-107.30000000000004
42
-0.41421356237309503
0
LWPOLYLINE
5
226
100
AcDbEntity
8
0
100
AcDbPolyline
90
8
70
1
43
0.0
10
372.76925
20
-70.700000000000003
10
372.76925
20
-84.700000000000003
42
0.41421356237309503
10
373.26925000000006
20
-85.200000000000017
10
379.26925000000006
20
-85.200000000000017
42
0.41421356237309503
10
379.76925
20
-84.700000000000003
10
379.76925
20
-70.700000000000003
42
0.41421356237309503
10
379.26925000000006
20
-70.200000000000003
10
373.26925000000006
20
-70.200000000000003
42
0.41421356237309503
0
CIRCLE
5
227
100
AcDbEntity
8
0
100
AcDbCircle
10
307.37499999999966
20
-1.2875000000000025
30
0
40
1.25
210
0
220
0
230
1
0
CIRCLE
5
228
100
AcDbEntity
8
0
100
AcDbCircle
10
149.82500000000002
20
-1.2875000000000003
30
0
40
1.25
210
0
220
0
230
1
0
CIRCLE
5
229
100
AcDbEntity
8
0
100
AcDbCircle
10
149.82500000000002
20
-127.30000000000004
30
0
40
1.25
210
0
220
0
230
1
0
CIRCLE
5
230
100
AcDbEntity
8
0
100
AcDbCircle
10
307.37499999999966
20
-127.30000000000003
30
0
40
1.25
210
0
220
0
230
1
0
LWPOLYLINE
5
231
100
AcDbEntity
8
0
100
AcDbPolyline
90
14
70
1
43
0.0
10
264.59426754778247
20
-109.03637768669279
10
268.59426760738711
20
-105.03637762708814
42
-0.99999999999999989
10
269.30137439911033
20
-105.74348441881143
10
265.59426756268363
20
-109.45059125523814
10
265.59426756268363
20
-114.03637776119859
10
268.59426760738705
20
-111.03637771649511
42
-0.99999999999999989
10
269.30137439911039
20
-111.74348450821837
10
265.59426756268363
20
-115.4505913446451
10
265.59426756268363
20
-121.03637786550672
42
-0.99999999999999989
10
264.59426754778247
20
-121.03637786550672
10
264.59426754778247
20
-116.45059135954627
10
261.3013742799011
20
-119.74348462742766
42
-0.99999999999999989
10
260.59426748817776
20
-119.03637783570444
10
264.59426754778247
20
-115.03637777609976
0
ENDSEC
0
SECTION
2
OBJECTS
0
DICTIONARY
5
C
100
AcDbDictionary
3
ACAD_GROUP
350
D
3
ACAD_MLINESTYLE
350
17
0
DICTIONARY
5
D
100
AcDbDictionary
0
DICTIONARY
5
1A
330
C
100
AcDbDictionary
0
DICTIONARY
5
17
100
AcDbDictionary
0
ENDSEC
0
EOF
